<svg xmlns="http://www.w3.org/2000/svg" width="963.377" height="832.377" viewBox="0 0 963.377 832.377"><defs><style>.cls-1{fill:#fff;fill-rule:evenodd;opacity:.4}</style></defs><path id="_502.svg" data-name="502.svg" class="cls-1" d="M1686.12 454.03 1522.88 271.366a2.629 2.629.0 0 0-3.63-3.8 2.338 2.338.0 0 0-.27.286l-119.38-85.56a2.63 2.63.0 1 0-4.81-.724l-69.17 23.138a2.348 2.348.0 0 0-.42-.694 2.634 2.634.0 0 0-4.35 2.895l-99.75 59.966c-.05-.065-.09-.134-.14-.2a2.633 2.633.0 0 0-4.11 3.284l-114.34 99.472a2.636 2.636.0 0 0-3.83 3.615c.04.044.09.075.13.116L993.452 496.493a2.627 2.627.0 0 0-3.978 3.107l-76.785 38.187a2.635 2.635.0 1 0-4.24 3.1 2.7 2.7.0 0 0 .326.308L860.3 611.972a2.623 2.623.0 0 0-3.744 3.247L799.2 643.536a2.558 2.558.0 0 0-.265-.373 2.638 2.638.0 1 0-.335 3.778l96.433 100.664a2.632 2.632.0 0 0 3.7 3.73h0l86.242 83.841a2.634 2.634.0 0 0 3.763 3.662c.057-.05.1-.109.153-.163L1114.71 941.888a2.634 2.634.0 0 0 3.49 3.773l34.43 49.531a.367.367.0 0 1-.05.036 2.638 2.638.0 0 0 3.46 3.982 2.583 2.583.0 0 0 .82-1.345l60.22 9.975a2.672 2.672.0 0 0 .64 1.94 2.63 2.63.0 0 0 4.15-3.22l91.31-74.958a2.632 2.632.0 0 0 3.87-3.566.648.648.0 0 0-.08-.072l91.28-101.9a2.633 2.633.0 0 0 3.83-3.482l101.06-74.474a2.637 2.637.0 0 0 4.28-3.037l235.59-161.387c.02.022.03.046.05.068a2.639 2.639.0 1 0 .95-4.143l-64.88-121.28a2.292 2.292.0 0 0 .3-.212A2.632 2.632.0 0 0 1686.12 454.03zm66.48 128.949L1590.54 662.69a2.243 2.243.0 0 0-.26-.374c-.02-.016-.03-.028-.05-.044l63.93-68.881a2.62 2.62.0 0 0 4.25-2.1l94.05-8.8A2.862 2.862.0 0 0 1752.6 582.979zM799.345 645.973 918.67 687.909a2.629 2.629.0 0 0 1.373 3.023l-22.275 55.892a2.622 2.622.0 0 0-2.421.473L798.914 646.632A2.608 2.608.0 0 0 799.345 645.973zm303.445-276.2L1217.14 270.3a2.6 2.6.0 0 0 1.51.728l-2.88 74.5a2.62 2.62.0 0 0-2.5 2.929L1103.2 370.587A2.454 2.454.0 0 0 1102.79 369.768zM1593.83 537.5a2.6 2.6.0 0 0-1.46-.719l5.15-90.585a2.6 2.6.0 0 0 1.66-.634 2.637 2.637.0 0 0 .84-1.413l85.05 11.84a2.636 2.636.0 0 0 .51 1.694zM1513.4 744.386a2.633 2.633.0 0 0-.9 2.168l-56.64 8.632a2.689 2.689.0 0 0-.57-1.126 2.56 2.56.0 0 0-.36-.339l51.55-78.01a2.593 2.593.0 0 0 1.3.319l6.86 67.765A2.569 2.569.0 0 0 1513.4 744.386zm-114.54 61.859a2.611 2.611.0 0 0-3.23-.226l-46.02-56.959a2.592 2.592.0 0 0 .78-1.467l100.28 8.2a2.615 2.615.0 0 0 .57 1.627zm-55.97 52.184a2.6 2.6.0 0 0-1.39-.655l6.36-107.987a2.609 2.609.0 0 0 1.41-.453l46.01 56.958a2.643 2.643.0 0 0-.25 3.523zm-77.93 63.379a2.577 2.577.0 0 0-1.18-.717l22.24-113.154a2.636 2.636.0 0 0 1.99-.6l51.12 51.337a2.607 2.607.0 0 0-.17 3.175zm-55.24 33.261 30.52-56.788a2.63 2.63.0 0 0 2.49-.218l18.54 23.637a2.627 2.627.0 0 0-.55 3.109l-50.32 30.905c-.05-.059-.08-.12-.13-.175A2.476 2.476.0 0 0 1209.72 955.069zM923.212 686.841a2.3 2.3.0 0 0-.229-.214l33.928-44.463a2.629 2.629.0 0 0 1.936.36l28.907 98.889a2.62 2.62.0 0 0-.783.462c-.058.05-.1.109-.154.163l-63.43-51.976A2.634 2.634.0 0 0 923.212 686.841zM1069.56 489.905a2.458 2.458.0 0 0 .6.418l-31.7 82.691a2.625 2.625.0 0 0-3.36 2.295l-53.4-.324a2.63 2.63.0 0 0-.567-1.438zm67.21-67.7a2.577 2.577.0 0 0 .91.5l-22.27 100.527a2.612 2.612.0 0 0-2.08.614c-.04.035-.07.075-.11.112L1073.43 489.5a2.623 2.623.0 0 0-.12-3.263zm77.36-72.111a2.622 2.622.0 0 0 2.7.517l20.61 43.09a2.273 2.273.0 0 0-.4.282 2.609 2.609.0 0 0-.87 2.393l-95.21 22.981a2.433 2.433.0 0 0-.44-.793zm43.56-35.786a2.567 2.567.0 0 0 1.05.665l-12.4 49.725a2.6 2.6.0 0 0-2.15.6 2.792 2.792.0 0 0-.37.393l-25.6-16.316a2.618 2.618.0 0 0-.16-2.708zm152.13-50.024 24.23 70.569a2.771 2.771.0 0 0-.49.285l-60.11-69.208a2.636 2.636.0 0 0 .74-1.775l32.38-2.035a2.744 2.744.0 0 0 .62 1.347A2.62 2.62.0 0 0 1409.82 264.284zm109.24 7.071a2.588 2.588.0 0 0 1.33.769L1501.82 400.5a2.618 2.618.0 0 0-1.87.627l-62.82-62.18a2.636 2.636.0 0 0 .17-3.135zm2.78.7 74.35 169.2a2.82 2.82.0 0 0-.47.324 2.737 2.737.0 0 0-.6.77l-90.96-38.4a2.614 2.614.0 0 0-1.91-3.38l18.57-128.374A2.7 2.7.0 0 0 1521.84 272.054zm70.09 264.7a2.58 2.58.0 0 0-1.65.636 2.514 2.514.0 0 0-.39.426l-45.79-28.246a2.652 2.652.0 0 0-.37-2.924.957.957.0 0 0-.11-.111l52.29-60.834a2.608 2.608.0 0 0 1.17.469zm-5.37 125.3a2.852 2.852.0 0 0-.21.217l-66.92-51.743a2.541 2.541.0 0 0 .43-1.231c13.04-.131 69.22-.712 82.24-1.194a2.658 2.658.0 0 0 .61 1.357 2.687 2.687.0 0 0 1.05.722l-14.95 51.288A2.616 2.616.0 0 0 1586.56 662.055zm-236.14 85.1a2.626 2.626.0 0 0-.63-1.726c-.03-.029-.06-.051-.09-.077l71-79.57a2.624 2.624.0 0 0 2.21.445l29.35 87.155a2.582 2.582.0 0 0-.69.421 2.634 2.634.0 0 0-.86 1.557zm-9.36 110.594a2.642 2.642.0 0 0-1.63.611l-51.11-51.335a2.629 2.629.0 0 0 .04-3.344l57.69-54.562a2.586 2.586.0 0 0 1.37.644zm-79.44 63.683-18.54-23.637a2.648 2.648.0 0 0 .2-3.659 2.9 2.9.0 0 0-.63-.514l42.69-85.858a1.612 1.612.0 0 0 .25.093l-22.24 113.155A2.62 2.62.0 0 0 1261.62 921.431zm-95.27-65.484 16.42-29.165a2.618 2.618.0 0 0 2.82-.4 2.555 2.555.0 0 0 .6-.754l47.29 20.317a2.553 2.553.0 0 0-.12 1.026l-65.94 10.523a2.481 2.481.0 0 0-.56-1.1A2.335 2.335.0 0 0 1166.35 855.947zm-86.89 13.715 27.38-60.621a2.631 2.631.0 0 0 2.61-.485 2.73 2.73.0 0 0 .77-1.18L1181.27 824a2.7 2.7.0 0 0 .11 1.259l-100.9 45.418a2.93 2.93.0 0 0-.31-.453A2.676 2.676.0 0 0 1079.46 869.662zm-45.04-48.372 3.51-90.308a2.56 2.56.0 0 0 1.46-.527l66.42 74.3a2.645 2.645.0 0 0-.7 2.19l-68.5 16.134a2.7 2.7.0 0 0-.52-.917A2.612 2.612.0 0 0 1034.42 821.29zm1.41-243.925a2.609 2.609.0 0 0 1.69.81l1.04 122.25a2.593 2.593.0 0 0-1.49.63 2.166 2.166.0 0 0-.19.206l-76.361-59.87a2.627 2.627.0 0 0-.025-2.919zm37.21-87.426c.04-.035.06-.076.1-.112l39.79 34.454a2.647 2.647.0 0 0-.2 2.786l-72.92 46.879c-.04-.043-.06-.091-.1-.133a2.617 2.617.0 0 0-.84-.644l31.7-82.691A2.648 2.648.0 0 0 1073.04 489.939zm144.58-139.8a2.785 2.785.0 0 0 .37-.392l25.6 16.315a2.624 2.624.0 0 0 .34 2.955 2.553 2.553.0 0 0 1.14.76l-5.88 23.6a2.64 2.64.0 0 0-1.36.133l-20.61-43.089A2.389 2.389.0 0 0 1217.62 350.143zm154.03-83.418a2.575 2.575.0 0 0 1.46-.506l60.12 69.208a2.647 2.647.0 0 0-.7 1.332l-61.7-6.622a2.607 2.607.0 0 0-2.27-2.666zM1589.94 541l-70.95 66.154a2.628 2.628.0 0 0-.93-.548l23.28-95.636a2.605 2.605.0 0 0 2.13-.6 2.564 2.564.0 0 0 .39-.428l45.8 28.245A2.61 2.61.0 0 0 1589.94 541zM1288.06 803.362a2.671 2.671.0 0 0-1.07-.59l21.51-119.436a2.582 2.582.0 0 0 1.38-.253l36.4 61.933a1.712 1.712.0 0 0-.21.153 2.63 2.63.0 0 0-.33 3.63zm-50.2 41.576a2.639 2.639.0 0 0-1.25-.722l12.53-78.828a2.625 2.625.0 0 0 1.75-.514l33.54 38.617a2.623 2.623.0 0 0-.28 3.323zM1037.97 578.167a2.589 2.589.0 0 0 1.3-.5l41.63 47.925a2.634 2.634.0 0 0-.11 3.562 2.88 2.88.0 0 0 .48.425l-41.34 71.089a2.6 2.6.0 0 0-.93-.249zm209.68-208.885a2.745 2.745.0 0 0 .37-.394l49.2 31.366a2.667 2.667.0 0 0-.26.769l-55.57-5.031a2.578 2.578.0 0 0-.63-1.75 2.619 2.619.0 0 0-1.15-.755l5.89-23.6A2.637 2.637.0 0 0 1247.65 369.282zM1432.48 337.2a2.643 2.643.0 0 0 .64 1.793 2.6 2.6.0 0 0 .9.664l-32.33 90.112a2.673 2.673.0 0 0-1.3-.007L1369.21 332.5a2.542 2.542.0 0 0 1.57-1.928zM1185.62 822.431a2.624 2.624.0 0 0-.77-.48l19.59-62.794a2.6 2.6.0 0 0 3.14-1.991l39.13 5.446a2.613 2.613.0 0 0 .57 1.779zm-78.61-18.4-31.76-84.765a2.508 2.508.0 0 0 .6-.382 2.554 2.554.0 0 0 .64-.828l80.08 31.386a2.612 2.612.0 0 0 .53 2.483c.02.021.04.037.06.057l-47.83 52.489A2.636 2.636.0 0 0 1107.01 804.032zm-66.22-102.717a2.556 2.556.0 0 0-.48-.423l41.34-71.091a2.53 2.53.0 0 0 .66.2l-8.15 84.257a2.59 2.59.0 0 0-2.4 1.465L1041.32 703.8A2.64 2.64.0 0 0 1040.79 701.315zm200.56-304.883 55.57 5.028a2.635 2.635.0 0 0 .64 1.75 2.6 2.6.0 0 0 1.33.822l-7.56 44.2a2.6 2.6.0 0 0-1.87.578l-48.73-51.094A2.6 2.6.0 0 0 1241.35 396.432zm157.66 37.616a2.646 2.646.0 0 0 1.43.837l-4.57 34.407a2.613 2.613.0 0 0-1.86.64 3.318 3.318.0 0 0-.25.267l-91.97-67.353a2.926 2.926.0 0 0 .2-.395l96.44 29.313A2.672 2.672.0 0 0 1399.01 434.048zm101.78-28.44-19.15 73.455a2.59 2.59.0 0 0-3.02 2.074L1398.37 472a2.678 2.678.0 0 0-.31-1.322l101.53-65.939c.03.04.05.083.08.123A2.582 2.582.0 0 0 1500.79 405.608zm-33.82 145.637a2.627 2.627.0 0 0-.89 2.015l-78.97 7.365a2.691 2.691.0 0 0-.43-1.029l92.63-76.112a2.642 2.642.0 0 0 1.21.721l-11.58 66.407A2.643 2.643.0 0 0 1466.97 551.245zm-46.41 110.437a2.462 2.462.0 0 0-.56.7L1324.35 618.8a2.625 2.625.0 0 0-.39-2.482l58.77-53.313a2.61 2.61.0 0 0 2.51.608l35.94 97.675A2.562 2.562.0 0 0 1420.56 661.682zm-212.91 95.049a2.656 2.656.0 0 0-.64-1.877 2.61 2.61.0 0 0-1-.7l14.28-45.789a2.644 2.644.0 0 0 1.55-.126l26.13 52.273a2.544 2.544.0 0 0-1.2 1.666zm-124.9-126.68a2.6 2.6.0 0 0 1.36-.356l46.95 66.665a.485.485.0 0 0-.04.028 2.611 2.611.0 0 0-.83 2.569l-53.64 16.937a2.371 2.371.0 0 0-.44-.734 2.581 2.581.0 0 0-1.52-.853zm395.82-148.477a2.638 2.638.0 0 0 .46 1.569l-92.63 76.111a2.617 2.617.0 0 0-1.34-.739l10.57-83.96a2.615 2.615.0 0 0 2.69-2.115zM1323.66 616a2.618 2.618.0 0 0-1.63-.711l-2.22-86.108a2.63 2.63.0 0 0 1.44-.629 2.712 2.712.0 0 0 .48-.569l60.37 32.074a2.638 2.638.0 0 0 .33 2.63zm-17.49 65.223-82.85 23.645a2.694 2.694.0 0 0-.47-.8 2.573 2.573.0 0 0-1.17-.766l21.8-91.987a2.6 2.6.0 0 0 1.98-.5l61.38 68.113A2.6 2.6.0 0 0 1306.17 681.219zm-102.32 73.012-13.89-22.988c.06-.045.13-.083.19-.134a2.632 2.632.0 0 0 .52-3.346l28.19-20.258a.021.021.0 0 0 .01.021 2.6 2.6.0 0 0 1 .7l-14.28 45.789A2.637 2.637.0 0 0 1203.85 754.231zM1084.51 629.413a2.611 2.611.0 0 0 .89-1.733l68.02.984a2.588 2.588.0 0 0 .64 1.549 2.637 2.637.0 0 0 .95.686l-21.64 64.92a2.621 2.621.0 0 0-1.95.287l-46.95-66.667A.138.138.0 0 0 1084.51 629.413zm208.32-176.562a1.649 1.649.0 0 0 .15-.152l58.12 48.171a2.653 2.653.0 0 0-.1 2.853l-29.47 21.124c-.01-.007-.01-.016-.02-.023a2.626 2.626.0 0 0-2.71-.8l-26.57-70.79A2.544 2.544.0 0 0 1292.83 452.851zM1395.2 474.5l-10.57 83.961a2.646 2.646.0 0 0-1.15.217l-28.79-54.094a3.287 3.287.0 0 0 .3-.215 2.64 2.64.0 0 0 .53-3.342l38.21-27.389c.01.006.01.016.02.023A2.591 2.591.0 0 0 1395.2 474.5zm-73.42 50.71 29.47-21.124c.01.007.01.015.02.022a2.63 2.63.0 0 0 3.03.684l28.79 54.092a2.524 2.524.0 0 0-.3.215 2.386 2.386.0 0 0-.48.57l-60.37-32.075A2.646 2.646.0 0 0 1321.78 525.206zm-2.41 3.982 2.22 86.109a2.607 2.607.0 0 0-1.44.629c-.01.0-.01.008-.01.01l-53.53-51.588a2.64 2.64.0 0 0 .27-2.919l50.57-33.25c.03.035.05.075.08.109A2.6 2.6.0 0 0 1319.37 529.188zm-56.08 35.8-18.54 41.246a2.638 2.638.0 0 0-2.61.485 2.678 2.678.0 0 0-.88 2.355l-82.7 18.616a2.773 2.773.0 0 0-.16-.379l104.04-63.079a1.857 1.857.0 0 0 .14.187A2.509 2.509.0 0 0 1263.29 564.988zm-105.73 65.64 61.45 73.3a2.632 2.632.0 0 0-.74 1.424l-82.89-6.975a2.592 2.592.0 0 0-1.59-2.417l21.63-64.922A2.632 2.632.0 0 0 1157.56 630.628zm61.79 73.021-61.45-73.3a2.675 2.675.0 0 0 .76-2.226l82.7-18.617a2.766 2.766.0 0 0 .52.94 2.652 2.652.0 0 0 1.18.768L1221.25 703.2A2.611 2.611.0 0 0 1219.35 703.649zm-84.01-4.831 82.9 6.976a2.621 2.621.0 0 0 .36 1.354L1190.42 727.4a.02.02.0 0 1-.01-.02 2.637 2.637.0 0 0-3.72-.259 2.5 2.5.0 0 0-.46.533l-51.08-28.2A2.839 2.839.0 0 0 1135.34 698.818zm109.81-92.406 18.54-41.248a2.631 2.631.0 0 0 2.61-.485s0-.007.01-.01l53.52 51.587a2.616 2.616.0 0 0-.53 1.137l-72.8-8.593a2.612 2.612.0 0 0-.64-1.82A2.506 2.506.0 0 0 1245.15 606.412zm148.33-133.138-38.21 27.39c-.01-.009-.01-.017-.02-.025a2.622 2.622.0 0 0-3.02-.681l-51.25-96.272a3.3 3.3.0 0 0 .3-.216 3.158 3.158.0 0 0 .25-.267l91.97 67.353A2.627 2.627.0 0 0 1393.48 473.274zm-92.9-69.381 51.25 96.272a3.3 3.3.0 0 0-.3.216 1.433 1.433.0 0 0-.14.154l-58.13-48.173a2.622 2.622.0 0 0-1.49-4.056l7.55-44.2A2.618 2.618.0 0 0 1300.58 403.893zm-8.76 49.5 26.57 70.789a2.769 2.769.0 0 0-.6.384 2.637 2.637.0 0 0-.58 3.25l-50.58 33.25a.591.591.0 0 0-.07-.109 2.656 2.656.0 0 0-1.17-.766l25.33-106.731A2.6 2.6.0 0 0 1291.82 453.391zm-29.61 110.465-104.04 63.082c-.05-.062-.08-.129-.13-.188a2.65 2.65.0 0 0-1.39-.831l16.11-106.989a2.646 2.646.0 0 0 1.91-.641 2.85 2.85.0 0 0 .5-.614l86.96 44.027A2.614 2.614.0 0 0 1262.21 563.856zm-89.87-45-16.12 106.99a2.425 2.425.0 0 0-.28.006l-8.76-70.1a2.578 2.578.0 0 0 1.19-.578 2.636 2.636.0 0 0 .26-3.723 2.482 2.482.0 0 0-.29-.274l23.26-32.623A2.567 2.567.0 0 0 1172.34 518.86zm-25.59 36.951 8.75 70.1a2.6 2.6.0 0 0-2.07 2.312l-68.03-.985a2.57 2.57.0 0 0-.63-1.548c-.03-.041-.08-.071-.11-.111l60.44-70.261A2.621 2.621.0 0 0 1146.75 555.811zm-70.07 160.5 53.64-16.938a2.823 2.823.0 0 0 .44.735 2.626 2.626.0 0 0 2.98.7l23.97 47.145a2.649 2.649.0 0 0-.35.244 2.676 2.676.0 0 0-.64.828l-80.07-31.385A2.721 2.721.0 0 0 1076.68 716.315zm81.42 31.446-23.97-47.144a2.657 2.657.0 0 0 .35-.245 2.456 2.456.0 0 0 .45-.534l51.08 28.2a2.642 2.642.0 0 0 .15 2.427l-25.07 18.012c0-.006-.01-.013-.01-.019A2.627 2.627.0 0 0 1158.1 747.761zm28.31-16.933c0 .006.01.014.01.02a2.633 2.633.0 0 0 3.16.626l13.89 22.989c-.06.045-.12.081-.18.133a2.575 2.575.0 0 0-.84 1.411l-40.73-5.669a2.663 2.663.0 0 0-.37-1.5zm61.95 29.487-26.13-52.274a2.084 2.084.0 0 0 .36-.254 2.638 2.638.0 0 0 .85-2.5l82.85-23.644a2.707 2.707.0 0 0 .47.8 2.53 2.53.0 0 0 .27.259l-56.34 77.8A2.622 2.622.0 0 0 1248.36 760.315zm58.8-81.694-61.37-68.113a2.684 2.684.0 0 0 .66-1.27l72.8 8.592a2.6 2.6.0 0 0 .63 1.819 2.651 2.651.0 0 0 1.24.792L1309.07 678.1A2.615 2.615.0 0 0 1307.16 678.621zm-16.88-225.263-25.32 106.731a2.614 2.614.0 0 0-1.91.454l-69.24-82.281a2.622 2.622.0 0 0 .73-2.3l94.08-24.234a2.6 2.6.0 0 0 .49.864A2.667 2.667.0 0 0 1290.28 453.358zm-96.81 25.187 69.24 82.281a2.722 2.722.0 0 0-.38.482l-86.96-44.026a2.634 2.634.0 0 0-.44-2.717 2.749 2.749.0 0 0-.67-.536l16.76-35.17A2.627 2.627.0 0 0 1193.47 478.545zM1171.24 518.3l-23.26 32.623a2.626 2.626.0 0 0-3.07.268.8.8.0 0 0-.1.112l-27.63-23.921a2.613 2.613.0 0 0 .5-1.76l52.71-8.684a2.552 2.552.0 0 0 .56 1.089A2.032 2.032.0 0 0 1171.24 518.3zm-54.45 9.523c.04-.034.06-.075.1-.112l27.62 23.92a2.64 2.64.0 0 0 .14 3.283c.04.041.08.071.12.109l-60.44 70.261a3.043 3.043.0 0 0-.54-.3l30.68-96.591A2.637 2.637.0 0 0 1116.79 527.825zm44.03 224.36a2.614 2.614.0 0 0 .83-1.412l40.74 5.67a2.643 2.643.0 0 0 .63 1.876 2.676 2.676.0 0 0 1 .7l-19.59 62.8a2.644 2.644.0 0 0-1.19.013l-23.11-69.224A2.618 2.618.0 0 0 1160.82 752.185zM1284.76 803.2l-33.54-38.615a2.535 2.535.0 0 0-.17-3.822l56.34-77.8a2.664 2.664.0 0 0 .68.3L1286.56 802.7A2.609 2.609.0 0 0 1284.76 803.2zm24.74-125.011 12.05-57.663a2.6 2.6.0 0 0 2.05-.618 2.628 2.628.0 0 0 .57-.706l95.65 43.584a2.386 2.386.0 0 0-.15 1.056L1311.3 680.106a2.55 2.55.0 0 0-.56-1.124A2.624 2.624.0 0 0 1309.5 678.191zm112.09-17.053-35.96-97.669a2.534 2.534.0 0 0 1.51-2.408l78.98-7.362a2.555 2.555.0 0 0 .59 1.269 2.619 2.619.0 0 0 .77.6l-44.38 105.6A2.632 2.632.0 0 0 1421.59 661.138zm94.09-54.155-45.09-51.916a2.638 2.638.0 0 0 .45-3.034l68.59-42.1a1.532 1.532.0 0 0 .12.177 2.574 2.574.0 0 0 1.16.761l-23.28 95.638A2.6 2.6.0 0 0 1515.68 606.983zm-44.86-55.3a1.838 1.838.0 0 0-.13-.175 2.578 2.578.0 0 0-1.32-.819l11.59-66.407a2.611 2.611.0 0 0 1.96-.633 2.42 2.42.0 0 0 .58-.734l55.76 24.612a2.627 2.627.0 0 0 .13 2.037zm69.19-45.293a2.517 2.517.0 0 0-.57.733l-55.76-24.61a2.692 2.692.0 0 0 .07-1.462l39.81-13.042a2.4 2.4.0 0 0 .43.707 2.624 2.624.0 0 0 2.72.8l13.89 36.5A2.8 2.8.0 0 0 1540.01 506.386zm-15.76-41.4a2.616 2.616.0 0 0-.83 2.6l-39.81 13.041a2.456 2.456.0 0 0-1.54-1.455l19.14-73.452a2.665 2.665.0 0 0 1.18-.06l22.45 58.952A2.462 2.462.0 0 0 1524.25 464.989zm-24.91-60.614-101.52 65.938c-.03-.04-.06-.083-.09-.121a2.619 2.619.0 0 0-1.43-.838l4.58-34.407a2.614 2.614.0 0 0 2.7-3.149l95.63-27.727A3.267 3.267.0 0 0 1499.34 404.375zm-130.55-71.739L14e2 429.889a2.428 2.428.0 0 0-.72.434 2.637 2.637.0 0 0-.72 1.021l-96.44-29.315a2.608 2.608.0 0 0-.58-2.283s-.01-.006-.01-.009l65.01-67.618A2.614 2.614.0 0 0 1368.79 332.636zm-128.37 65.388 48.72 51.094a2.627 2.627.0 0 0-.63 2.182l-94.07 24.233a2.631 2.631.0 0 0-.5-.864 2.561 2.561.0 0 0-.48-.424l44.17-75.887A2.643 2.643.0 0 0 1240.42 398.024zm-49.79 80.647-16.77 35.168a2.624 2.624.0 0 0-3.55 2.666l-52.71 8.685a2.6 2.6.0 0 0-.22-.592l72.49-46.6a.849.849.0 0 0 .09.131A2.425 2.425.0 0 0 1190.63 478.671zm-76.58 49.592-30.68 96.592a2.634 2.634.0 0 0-2.14.446l-41.63-47.925a2.622 2.622.0 0 0 .45-3.065l72.92-46.877c.03.042.06.089.09.13A2.668 2.668.0 0 0 1114.05 528.263zm-75.13 177.41a2.623 2.623.0 0 0 1.61-.633 2.687 2.687.0 0 0 .64-.828l30.43 11.929a2.6 2.6.0 0 0-.04 1.329l-31.32 9.889a2.547 2.547.0 0 0-.43-.734 2.647 2.647.0 0 0-1.67-.878zm1.46 22.107 31.31-9.889a2.824 2.824.0 0 0 .44.732 2.634 2.634.0 0 0 2.71.8l31.75 84.764a2.363 2.363.0 0 0-.45.276l-66.42-74.3A2.635 2.635.0 0 0 1040.38 727.78zm69.33 77.051c-.02-.021-.04-.037-.06-.057l47.83-52.488a2.631 2.631.0 0 0 2.23.462l23.12 69.225a2.693 2.693.0 0 0-.7.422 2.616 2.616.0 0 0-.76 1.18l-71.05-16.63A2.673 2.673.0 0 0 1109.71 804.831zm76.21 17.92 61.66-58.04a2.64 2.64.0 0 0 1.13.605l-12.54 78.826a2.624 2.624.0 0 0-1.92.639 2.51 2.51.0 0 0-.59.755l-47.3-20.317A2.639 2.639.0 0 0 1185.92 822.751zm160.74-77.959-36.39-61.934c.07-.05.14-.094.21-.152a2.618 2.618.0 0 0 .89-2.164l108.36-16.262a2.685 2.685.0 0 0 .57 1.125.537.537.0 0 0 .08.077l-71 79.57A2.622 2.622.0 0 0 1346.66 744.792zm76.85-83.453 44.37-105.6a2.615 2.615.0 0 0 2.37-.379l45.1 51.915a2.607 2.607.0 0 0-.5 2.943l-90.4 51.963c-.06-.078-.11-.162-.17-.237A2.75 2.75.0 0 0 1423.51 661.339zm117.51-155.491-13.91-36.5a2.768 2.768.0 0 0 .6-.376 2.636 2.636.0 0 0 .82-2.6l66.5-21.784a2.966 2.966.0 0 0 .43.708c.04.041.08.071.12.11l-52.29 60.835A2.635 2.635.0 0 0 1541.02 505.848zm53.88-61.678-66.5 21.786a2.691 2.691.0 0 0-.43-.708 2.633 2.633.0 0 0-2.72-.8L1502.8 405.5a2.525 2.525.0 0 0 .59-.377 2.42 2.42.0 0 0 .6-.768l90.96 38.4A2.74 2.74.0 0 0 1594.9 444.17zm-95.81-40.522-95.63 27.727a2.845 2.845.0 0 0-.46-.792 2.691 2.691.0 0 0-.9-.664l32.33-90.111a2.622 2.622.0 0 0 2.39-.546l62.82 62.182A2.606 2.606.0 0 0 1499.09 403.648zm-132.88-71.839c.01.0.01.006.01.01l-65.01 67.615a2.638 2.638.0 0 0-2.54-.44l-37.81-84.206a2.519 2.519.0 0 0 .45-.316 2.689 2.689.0 0 0 .83-1.353l103.43 16.755A2.655 2.655.0 0 0 1366.21 331.809zm-105.76-16.843 37.82 84.2a2.513 2.513.0 0 0-.45.315 2.745 2.745.0 0 0-.37.394l-49.2-31.365a2.607 2.607.0 0 0-1.49-3.714l12.4-49.726A2.616 2.616.0 0 0 1260.45 314.966zm-23.19 83.165-44.18 75.888a2.634 2.634.0 0 0-2.78.331l-49.88-52.42a2.654 2.654.0 0 0 .64-2.143l95.2-22.981a2.792 2.792.0 0 0 .51.9A2.547 2.547.0 0 0 1237.26 398.131zm-97.16 24.107 49.89 52.419a2.638 2.638.0 0 0-.36 2.978l-72.49 46.6c-.03-.043-.06-.091-.09-.132a2.65 2.65.0 0 0-1.21-.78l22.27-100.528A2.594 2.594.0 0 0 1140.1 422.238zm-180.046 219.7c.072-.064.129-.137.192-.205l76.354 59.87a2.635 2.635.0 0 0 .03 2.923l-46.039 37.512a2.623 2.623.0 0 0-2.413-.75L959.269 642.4A2.614 2.614.0 0 0 960.054 641.941zm30.814 100.444 46.042-37.512a2.61 2.61.0 0 0 1.57.785l-.78 20.075a2.627 2.627.0 0 0-1.62.633 2.654 2.654.0 0 0-.83 2.569l-44.12 13.932A2.631 2.631.0 0 0 990.868 742.385zm246.842 106.38a2.641 2.641.0 0 0 .43-3.485l46.29-38.124a2.562 2.562.0 0 0 .53.417l-42.71 85.852a2.645 2.645.0 0 0-1.03-.184l-4.74-43.886A2.634 2.634.0 0 0 1237.71 848.765zm214.96-95.524-29.34-87.156a2.656 2.656.0 0 0 .69-.419 2.623 2.623.0 0 0 .85-1.508l80.44 8.244a2.637 2.637.0 0 0 .44 2.732 2.285 2.285.0 0 0 .36.337l-51.55 78.013A2.623 2.623.0 0 0 1452.67 753.241zm55.24-82.472a2.639 2.639.0 0 0-1.9.64 2.674 2.674.0 0 0-.48.576l-80.61-8.262a2.765 2.765.0 0 0-.25-1.164l90.4-51.962a1.391 1.391.0 0 0 .17.236 2.587 2.587.0 0 0 1.39.834zm95.07-65.03a2.6 2.6.0 0 0-.9 1.927c-12.85.472-69.39 1.062-82.23 1.191a2.617 2.617.0 0 0-.56-1.38l70.95-66.153a2.631 2.631.0 0 0 2.03.678l11.74 63.191A2.5 2.5.0 0 0 1602.98 605.739zM1371.21 266.7l-3.1 60.747a2.588 2.588.0 0 0-2.46 1.989l-103.44-16.757a2.639 2.639.0 0 0-.13-1.042l107.16-46.3a2.692 2.692.0 0 0 .33.489A2.636 2.636.0 0 0 1371.21 266.7zM980.807 577.18a2.626 2.626.0 0 0 .892-1.754l53.4.322a2.718 2.718.0 0 0 .45 1.273l-75.331 61.107a2.617 2.617.0 0 0-.9-.612l19.163-59.763A2.625 2.625.0 0 0 980.807 577.18zm9.624 168.679a2.633 2.633.0 0 0 .831-2.571l44.128-13.932a2.529 2.529.0 0 0 .43.733 2.65 2.65.0 0 0 1.67.88l-3.51 90.307a2.548 2.548.0 0 0-.98.238l-42.816-75.481A2.755 2.755.0 0 0 990.431 745.859zm46.269 77.655 68.51-16.134a2.678 2.678.0 0 0 .52.915 2.5 2.5.0 0 0 .71.566l-27.38 60.621a2.62 2.62.0 0 0-2.49.4l-40.54-44.2A2.607 2.607.0 0 0 1036.7 823.514zm43.96 47.571 100.9-45.418a2.9 2.9.0 0 0 .31.45 2.617 2.617.0 0 0 .52.444l-16.42 29.166a2.624 2.624.0 0 0-3.72 2.589l-81.52 13.011A2.028 2.028.0 0 0 1080.66 871.085zm85.94-10.971a2.6 2.6.0 0 0 .89-2.188l65.94-10.523a2.544 2.544.0 0 0 .38.847l-115.04 93.3a3.166 3.166.0 0 0-.41-.352l45.42-80.685A2.622 2.622.0 0 0 1166.6 860.114zM1119.05 941.9l115.03-93.306a2.621 2.621.0 0 0 1.97.807l4.73 43.886a2.6 2.6.0 0 0-2.02 3.308l-119.52 45.643A2.524 2.524.0 0 0 1119.05 941.9zm389.29-271.061 8.72-59.1a2.626 2.626.0 0 0 1.9-.64 2.286 2.286.0 0 0 .2-.218l66.92 51.745a2.63 2.63.0 0 0-.42 1.484l-75.59 8.069a2.332 2.332.0 0 0-.34-.5A2.618 2.618.0 0 0 1508.34 670.839zm80.89-9.244 14.95-51.288a2.62 2.62.0 0 0 3.09-3.169l46.09-14.812a2.7 2.7.0 0 0 .43.721c.02.016.03.029.05.043l-63.93 68.881A2.61 2.61.0 0 0 1589.23 661.6zm64-69.689-46.1 14.812a2.7 2.7.0 0 0-.43-.722 2.638 2.638.0 0 0-2.26-.889l-11.74-63.191a2.658 2.658.0 0 0 1.04-.544 1.827 1.827.0 0 0 .15-.172l59.73 48.632A2.6 2.6.0 0 0 1653.23 591.906zm31.91-136.358-85.06-11.839a2.629 2.629.0 0 0-3.48-2.638l-74.36-169.2a2.543 2.543.0 0 0 .32-.218L1685.8 454.323A2.57 2.57.0 0 0 1685.14 455.548zM1518.79 271.007l-81.76 64.453a2.616 2.616.0 0 0-2.56-.752l-24.23-70.569a2.851 2.851.0 0 0 .67-.412 2.6 2.6.0 0 0 .86-1.589l106.59 7.458A2.512 2.512.0 0 0 1518.79 271.007zm-112.24-9.328-32.38 2.037a2.616 2.616.0 0 0-4.11-1.771l-45.01-54.323a1.874 1.874.0 0 0 .24-.258l81.57 53.125A2.625 2.625.0 0 0 1406.55 261.679zM1324.71 207.9l45.01 54.324a2.65 2.65.0 0 0-.66 2.714l-107.16 46.3a2.72 2.72.0 0 0-.33-.488 2.507 2.507.0 0 0-.46-.409l60.94-102.22A2.632 2.632.0 0 0 1324.71 207.9zm-67.3 106.063-39.63 32.359a2.581 2.581.0 0 0-1.57-.783l2.88-74.5a2.57 2.57.0 0 0 1.49-.549l37.07 40.219A2.62 2.62.0 0 0 1257.41 313.964zm-117.19 104.28a2.62 2.62.0 0 0-4.17 2.984L995.688 496.362 1213.7 349.887zm-3.97 3.374a3.089 3.089.0 0 0 .2.28L1073 485.931a2.628 2.628.0 0 0-4.32 2.147l-74.2 9.985a2.6 2.6.0 0 0-.154-.472zm-142.6 79.005a2.623 2.623.0 0 0 .893-2.122l74.2-9.988a2.657 2.657.0 0 0 .51 1.073l-88.424 83.645a2.6 2.6.0 0 0-1.1-.6l11.97-71.375A2.624 2.624.0 0 0 993.646 500.623zm-15.579 76.993-19.153 59.767a2.6 2.6.0 0 0-3.076 1.714L861.593 614.7a2.654 2.654.0 0 0-.031-1.043l115.1-37.451A2.491 2.491.0 0 0 978.067 577.616zM860.854 616.124a2.663 2.663.0 0 0 .631-1l94.251 24.38a2.623 2.623.0 0 0 .6 2.174 2.4 2.4.0 0 0 .229.213l-33.928 44.464a2.626 2.626.0 0 0-2.922.067zM898.18 746.982l22.274-55.89a2.631 2.631.0 0 0 2.5-.527c.057-.051.1-.11.154-.164l63.429 51.976a2.627 2.627.0 0 0-.462 1.425l-86.466 5.163A2.614 2.614.0 0 0 898.18 746.982zm90.693-.492a2.634 2.634.0 0 0 .928-.238l42.819 75.482a1.808 1.808.0 0 0-.25.175 2.613 2.613.0 0 0-.85 2.472l-42.043 11.557a2.655 2.655.0 0 0-.479-.826 2.614 2.614.0 0 0-1.723-.885zm.717 89.873 42.04-11.557a2.614 2.614.0 0 0 4.08 1.172l40.54 44.2a2.576 2.576.0 0 0-.45.633l-86.265-33.227A2.63 2.63.0 0 0 989.59 836.363zm90.32 37.589a2.633 2.633.0 0 0 .89-2.187l81.52-13.013a2.723 2.723.0 0 0 .56 1.1 2.614 2.614.0 0 0 .51.441l-45.42 80.687a2.636 2.636.0 0 0-2.15-.01l-36.21-66.813A2.255 2.255.0 0 0 1079.91 873.952zm39.49 68.7 119.52-45.641a2.909 2.909.0 0 0 .37.593 2.737 2.737.0 0 0 .56.469l-30.52 56.789a2.636 2.636.0 0 0-2.78.422 2.681 2.681.0 0 0-.83 1.381l-86.21-13.105A2.557 2.557.0 0 0 1119.4 942.647zm90.61 16.616a2.639 2.639.0 0 0 .62-3.178l50.32-30.905a1.451 1.451.0 0 0 .12.177 2.587 2.587.0 0 0 .6.5l-40.96 79.766a2.639 2.639.0 0 0-1.36-.18l-10.27-45.652A2.653 2.653.0 0 0 1210.01 959.263zm11.09 46.557 40.96-79.763a2.622 2.622.0 0 0 2.73-.439 2.592 2.592.0 0 0 .85-1.466l46.79 5.527a2.613 2.613.0 0 0 .47 1.581l-91.31 74.96A2.679 2.679.0 0 0 1221.1 1005.82zm92.23-78.043a2.636 2.636.0 0 0-.84 1.467l-46.8-5.529a2.557 2.557.0 0 0-.46-1.565l74-59.954a2.724 2.724.0 0 0 .77.561l-24.22 64.474A2.635 2.635.0 0 0 1313.33 927.777zm29.87-69.026 52.14-48.614a2.609 2.609.0 0 0 3.23.229l9.45 11.7a2.625 2.625.0 0 0-.6 2.931l-64.08 33.962A2.042 2.042.0 0 0 1343.2 858.751zm65.17-36.965-9.45-11.694a2.636 2.636.0 0 0 .25-3.526l52.37-48.829a1.375 1.375.0 0 0 .16.154l-40.64 63.739A2.612 2.612.0 0 0 1408.37 821.786zm3.07.077 40.63-63.739a2.635 2.635.0 0 0 2.96-.338 2.6 2.6.0 0 0 .89-2.17l56.65-8.627a2.445 2.445.0 0 0 .31.765l-101.06 74.47A2.062 2.062.0 0 0 1411.44 821.863zm103.64-78.111-6.86-67.763a2.611 2.611.0 0 0 1.25-.6 2.647 2.647.0 0 0 .78-2.8l75.46-8.05a2.537 2.537.0 0 0 .59 1.236.5.5.0 0 0 .08.08l-69.67 78.41A2.6 2.6.0 0 0 1515.08 743.752zm138.97-154.428c-.05.051-.1.114-.15.168l-59.72-48.629a2.623 2.623.0 0 0-.06-3.035l91.75-79.817a2.656 2.656.0 0 0 1.01.618l-30.71 130.087A2.643 2.643.0 0 0 1654.05 589.324zM1518.73 268.209a2.534 2.534.0 0 0-.34.947L1411.8 261.7a2.553 2.553.0 0 0-.63-1.7 2.619 2.619.0 0 0-2.15-.892l-11.08-75.6a2.618 2.618.0 0 0 1.14-.566 3.5 3.5.0 0 0 .27-.287zm-123.8-86.221a2.852 2.852.0 0 0 .42.692 2.649 2.649.0 0 0 2.16.893l11.07 75.6a2.637 2.637.0 0 0-1.13.566 2.557 2.557.0 0 0-.35.373l-81.57-53.123a2.639 2.639.0 0 0 .24-1.868zm-73.85 25.3c.05.065.09.134.14.2a2.925 2.925.0 0 0 .46.408l-60.94 102.219a2.634 2.634.0 0 0-2.77.3l-37.07-40.219a2.634 2.634.0 0 0 .43-2.935zM1099.14 373.457a2.626 2.626.0 0 0 4.15-2.44l110.08-22.134a2.3 2.3.0 0 0 .22.551L993.968 496.988c-.022-.029-.038-.061-.061-.088-.038-.044-.083-.076-.124-.116zM989.667 5e2a2.589 2.589.0 0 0 .258.367 2.619 2.619.0 0 0 1.339.823L979.3 572.562a2.558 2.558.0 0 0-2.434 1.215l-64-33.6a2.629 2.629.0 0 0 .022-1.991zm-80.526 41.441a2.627 2.627.0 0 0 3.029-.294 2.6 2.6.0 0 0 .483-.58l64 33.6a2.629 2.629.0 0 0-.134 1.633l-115.1 37.44a2.625 2.625.0 0 0-.429-.712 2.7 2.7.0 0 0-.327-.308zm-52.39 74.181a2.7 2.7.0 0 0 .264.373 2.627 2.627.0 0 0 3.5.414l58.856 70.3a2.651 2.651.0 0 0-.552.789L799.5 645.558a2.635 2.635.0 0 0-.107-1.625zm42.284 135.393a2.63 2.63.0 0 0 .6-1.605l86.466-5.163a2.611 2.611.0 0 0 2.337 2.242l-1.6 87.737a2.614 2.614.0 0 0-1.559.631h0zm90.138 87.326A2.563 2.563.0 0 0 989.38 838l86.27 33.225a2.626 2.626.0 0 0 3.58 3.144l36.21 66.818a2.439 2.439.0 0 0-.29.2 1.725 1.725.0 0 0-.15.161zM1118.56 945.406a.251.251.0 0 1 .05-.035 2.689 2.689.0 0 0 .83-1.381l86.21 13.1a2.7 2.7.0 0 0 .39 1.557l-49.75 36.826a2.637 2.637.0 0 0-3.3-.542zm38.38 52.024a2.665 2.665.0 0 0-.39-1.592l49.75-36.827a2.642 2.642.0 0 0 2.35.872l10.27 45.657a2.429 2.429.0 0 0-.94.52 2.6 2.6.0 0 0-.82 1.34zm159.71-69.766a2.5 2.5.0 0 0-.46-.277l24.22-64.474a2.632 2.632.0 0 0 3.14-3.569l64.08-33.963a2.313 2.313.0 0 0 .22.311.523.523.0 0 0 .08.073zm200.38-183.1 69.68-78.407a2.626 2.626.0 0 0 4.02-3.071l161.67-79.515L1517.16 744.713c-.01-.022-.03-.047-.04-.068C1517.09 744.615 1517.06 744.594 1517.03 744.565zm236.6-164.748a2.41 2.41.0 0 0-1.2 2.231l-94.06 8.8a2.542 2.542.0 0 0-1.77-2.037l30.71-130.089a2.6 2.6.0 0 0 1.43-.186z" transform="translate(-794.313 -178.313)"/></svg>